<?xml version="1.0" standalone="no"?>
<!DOCTYPE svg PUBLIC "-//W3C//DTD SVG 20010904//EN"
 "http://www.w3.org/TR/2001/REC-SVG-20010904/DTD/svg10.dtd">
<svg version="1.0" xmlns="http://www.w3.org/2000/svg"
 width="700.000000pt" height="700.000000pt" viewBox="0 0 700.000000 700.000000"
 preserveAspectRatio="xMidYMid meet">
<metadata>
Created by potrace 1.14, written by Peter Selinger 2001-2017
</metadata>
<g transform="translate(0.000000,700.000000) scale(0.100000,-0.100000)"
fill="#000000" stroke="none">
<path d="M3270 6840 c-173 -33 -286 -80 -508 -209 -76 -43 -153 -88 -172 -98
-19 -11 -93 -54 -165 -95 -71 -42 -146 -85 -165 -96 -19 -11 -91 -52 -160 -92
-262 -152 -577 -334 -620 -358 -25 -14 -57 -33 -72 -43 -14 -11 -28 -19 -31
-19 -14 0 -389 -225 -454 -272 -120 -88 -217 -189 -294 -306 -103 -156 -164
-330 -187 -530 -10 -85 -8 -2360 2 -2412 4 -19 12 -60 17 -90 42 -219 169
-454 326 -600 66 -62 106 -96 149 -126 34 -24 194 -124 199 -124 2 0 112 -63
246 -141 133 -77 261 -151 283 -163 91 -51 503 -290 526 -305 14 -8 34 -21 45
-27 54 -29 120 -67 460 -264 206 -119 241 -138 310 -167 60 -25 198 -70 244
-78 222 -40 440 -21 641 57 122 47 207 95 855 471 105 61 217 126 250 144 33
19 74 42 90 52 17 10 120 70 230 133 689 397 667 384 771 469 88 71 161 152
226 247 49 73 128 229 128 255 0 7 4 17 9 22 10 11 46 164 57 240 10 70 12
2297 2 2396 -39 407 -269 745 -653 959 -45 25 -156 89 -815 470 -447 258 -601
347 -689 398 -25 13 -67 38 -93 53 -27 16 -52 29 -55 29 -4 0 -14 6 -22 14 -9
7 -47 30 -86 51 -38 21 -77 42 -85 46 -61 33 -172 72 -285 101 -115 28 -329
32 -455 8z m384 -654 c77 -29 65 -23 486 -266 168 -97 332 -191 364 -210 33
-18 99 -57 148 -86 49 -30 90 -54 93 -54 2 0 36 -19 77 -43 40 -24 93 -55 118
-69 194 -109 682 -395 710 -416 118 -87 186 -198 216 -352 12 -62 10 -2232 -2
-2319 -13 -91 -64 -204 -119 -263 -50 -54 -129 -114 -209 -159 -39 -22 -78
-44 -86 -49 -8 -6 -98 -58 -200 -116 -102 -59 -241 -139 -310 -179 -69 -40
-141 -82 -160 -93 -19 -10 -235 -135 -480 -277 -538 -311 -610 -350 -686 -370
-118 -32 -242 -23 -351 25 -39 17 -180 96 -436 244 -18 10 -138 79 -267 154
-129 75 -329 190 -445 257 -115 67 -230 133 -255 147 -103 57 -489 283 -536
314 -122 79 -209 207 -237 344 -10 52 -12 301 -11 1195 1 622 4 1144 8 1160
26 118 92 233 171 300 45 39 131 95 225 147 58 33 60 34 430 248 173 100 335
194 360 208 25 14 61 35 80 47 19 12 42 24 50 28 8 4 22 11 30 17 8 5 98 57
200 116 102 58 210 120 240 138 307 183 418 239 505 256 78 15 205 4 279 -24z"/>
<path d="M4684 4937 c-64 -67 -256 -272 -385 -411 -31 -34 -72 -77 -90 -97
-40 -43 -219 -235 -279 -299 -49 -53 -128 -137 -219 -236 -36 -38 -122 -129
-190 -202 -68 -73 -132 -142 -142 -154 -17 -18 -241 -257 -277 -294 -10 -11
-80 40 -380 274 -202 159 -405 317 -452 353 l-85 66 -102 -131 c-57 -72 -106
-135 -110 -141 -24 -30 -120 -152 -130 -165 -96 -118 -273 -354 -271 -360 2
-5 73 -63 158 -130 85 -66 283 -221 439 -343 155 -122 295 -231 310 -242 127
-94 448 -350 496 -395 33 -31 92 -87 130 -123 l70 -67 75 79 c41 44 125 133
185 197 120 129 209 225 325 349 41 44 96 103 122 130 25 28 61 66 80 86 84
91 265 285 288 309 99 105 255 272 271 292 11 12 53 57 92 98 65 68 267 285
328 351 13 15 76 82 139 149 63 68 120 128 125 135 15 17 151 161 222 236 61
64 62 66 44 85 -10 10 -71 69 -136 129 -65 61 -134 125 -154 144 -20 18 -85
79 -145 135 -144 133 -172 159 -232 217 l-50 49 -70 -73z"/>
</g>
</svg>
